<svg width="510" height="375" viewBox="0 0 510 375" fill="none" xmlns="http://www.w3.org/2000/svg">
<path d="M397.99 142.713L406.256 169.247L382.816 170.244L389.827 142.716L391.103 137.705L386.052 136.598C379.035 135.061 377.548 131.972 377.425 130.803C377.314 129.742 378.035 126.893 383.544 124.913L386.917 123.702L386.853 120.119L386.411 95.3316L386.307 89.4812L380.544 90.4966L379.554 90.671L263.301 67.9956L262.07 67.7555L260.872 68.1247L240.948 74.2623L241.444 83.9445L324.495 100.474C309.141 103.204 294.508 105.803 282.376 107.956C272.918 109.634 264.98 111.042 259.407 112.031L252.926 113.18L251.47 113.438L250.428 113.264L245.079 112.375C240.466 111.608 233.866 110.511 225.915 109.189C210.015 106.545 188.715 103.002 167.119 99.4064C123.9 92.2111 79.5645 84.8175 74.8543 83.9846C74.3629 83.8977 73.9571 83.7969 73.6236 83.6933L244.384 47.2681L435.263 80.6774C433.213 81.0599 426.514 82.2602 416.833 83.995C411.698 84.9151 405.724 85.9857 399.16 87.1642L394.646 87.9747L395.065 92.5422L397.581 119.974L397.897 123.423L401.238 124.339C407.421 126.035 408.622 129.113 408.627 130.428C408.632 131.735 407.465 134.762 401.449 136.402L396.448 137.764L397.99 142.713ZM161.428 154.176L162.368 119.289L251.344 132.456L252.088 132.566L252.831 132.452L340.44 119.064V153.61C332.252 157.511 320.385 160.528 306.099 162.57C290.364 164.82 272.155 165.827 253.645 165.715C218.37 165.501 182.737 161.23 161.428 154.176Z" stroke="white" stroke-width="10"/>
<path fill-rule="evenodd" clip-rule="evenodd" d="M291.005 331.732C277.295 339.746 234.26 339.589 225.404 331.064L80 338.509L99.3523 226.013H119.295L128.512 215.248C128.512 215.248 220.779 199.769 255.154 221.711C289.529 199.769 375.598 215.7 375.598 215.7L387.767 225.522H409.316L437 339L291.005 331.732ZM118.737 247.875L107.782 316.234L129.168 297.533L134.186 225.738L118.737 247.875ZM150.783 223.911L146.552 292.21C146.552 292.21 217.729 281.937 246.659 298.24L247.774 233.281C218.09 212.184 150.783 223.911 150.783 223.911ZM355.524 225.62C355.524 225.62 295.007 211.732 265.322 232.927L264.601 298.83C299.271 280.247 361.133 290.855 361.133 290.855L355.524 225.62ZM273.949 307.728C274.31 315.487 239.968 314.584 239.968 307.944C230.128 300.716 176.138 298.653 143.633 303.171L125.199 320.025L228.455 315.035C238.59 326.821 277.918 325.446 284.216 315.939L385.897 321.302L369.956 305.233C343.716 300.44 302.453 293.939 273.949 307.728ZM387.635 241.197L372.219 229.214L379.796 295.078L401.707 314.878L387.635 241.197Z" fill="white"/>
</svg>
