<svg width="800" height="694" viewBox="0 0 800 694" fill="none" xmlns="http://www.w3.org/2000/svg">
<path d="M240 453.667C247.373 453.667 253.333 447.694 253.333 440.334V343.294C261.265 338.667 266.665 330.161 266.665 320.334C266.665 305.628 254.706 293.667 239.998 293.667C225.292 293.667 213.331 305.627 213.331 320.334C213.331 330.161 218.731 338.667 226.664 343.294V440.334C226.667 447.694 232.626 453.667 240 453.667Z" fill="white"/>
<path d="M133.841 157.041C136.387 182.667 147.534 205.227 148.067 206.294C160.161 230.467 178.427 267 240 267C301.573 267 319.841 230.467 331.933 206.294C332.466 205.227 343.613 182.667 346.159 157.041C354.4 152.508 360 143.72 360 133.667V107C360 97.1469 354.641 88.5328 346.667 83.9203V80.3344C346.667 36.2141 310.788 0.334373 266.667 0.334373H213.334C169.214 0.334373 133.334 36.2141 133.334 80.3344V83.9203C125.359 88.5328 120 97.1469 120 107V133.667C120 143.72 125.6 152.506 133.841 157.041ZM146.667 107C154.041 107 160 101.027 160 93.6672V80.3344C160 50.9203 183.92 27.0016 213.333 27.0016H266.666C296.08 27.0016 319.998 50.9219 319.998 80.3344V93.6672C319.998 101.027 325.958 107 333.331 107V133.667C325.958 133.667 319.998 139.641 319.998 147C319.998 170.067 308.186 194.147 308.066 194.373C294.186 222.133 281.945 240.333 239.998 240.333C198.052 240.333 185.811 222.133 171.945 194.386C171.812 194.145 159.998 170.066 159.998 147C159.998 139.641 154.039 133.667 146.666 133.667L146.667 107Z" fill="white"/>
<path d="M266.667 133.667H280C287.373 133.667 293.332 127.694 293.332 120.334C293.332 112.975 287.373 107.002 280 107.002H266.667C259.293 107.002 253.334 112.975 253.334 120.334C253.332 127.694 259.293 133.667 266.667 133.667Z" fill="white"/>
<path d="M200 133.667H213.333C220.706 133.667 226.665 127.694 226.665 120.334C226.665 112.975 220.706 107.002 213.333 107.002H200C192.626 107.002 186.667 112.975 186.667 120.334C186.667 127.694 192.626 133.667 200 133.667Z" fill="white"/>
<path d="M93.3328 453.667C85.9594 453.667 80 459.641 80 467V680.333C80 687.692 85.9594 693.666 93.3328 693.666C100.706 693.666 106.666 687.692 106.666 680.333V467C106.667 459.641 100.706 453.667 93.3328 453.667Z" fill="white"/>
<path d="M707.547 453.667H707.493C700.161 453.667 694.187 459.6 694.161 466.947L693.334 680.28C693.308 687.639 699.24 693.639 706.614 693.667H706.667C714.014 693.667 719.973 687.734 720 680.388L720.826 467.055C720.853 459.694 714.92 453.694 707.547 453.667Z" fill="white"/>
<path d="M585.974 116.12C584.174 110.667 579.08 107 573.333 107C567.586 107 562.507 110.667 560.693 116.12C550.666 146.187 521.16 146.987 519.999 147C512.625 147 506.666 152.973 506.666 160.333V213.666C506.666 258.198 537.093 320.333 586.666 320.333C636.239 320.333 666.666 258.2 666.666 213.666V160.333C666.666 152.973 660.707 147 653.333 147C652.76 147 596 146.159 585.974 116.12ZM640 213.667C640 249.908 616.213 293.667 586.668 293.667C557.122 293.667 533.335 249.908 533.335 213.667V172.041C546.388 169.081 562.508 161.641 574.349 146.494C593.029 165.173 622.816 171.014 640.002 172.841V213.667H640Z" fill="white"/>
<path d="M767.306 360.347C741.174 334.267 701.921 320.494 653.733 320.494C646.266 320.641 640.039 326.32 640 333.788C639.986 336.508 639.067 400.334 586.667 400.334C534.267 400.334 533.347 336.52 533.335 333.802C533.321 326.455 527.361 320.508 520.002 320.508C512.628 320.508 506.669 326.467 506.669 333.841C506.669 363.655 521.069 417.961 573.336 425.92V493.667C573.336 501.027 579.295 507 586.669 507C594.042 507 600.002 501.027 600.002 493.667V425.906C645.002 419.039 661.949 377.866 665.775 347.492C701.135 349.478 729.549 360.333 748.469 379.225C764.51 395.239 773.336 416.931 773.336 440.331V653.664C773.336 661.023 779.295 666.997 786.669 666.997C794.042 666.997 800.002 661.023 800.002 653.664V440.333C800 409.8 788.388 381.4 767.306 360.347Z" fill="white"/>
<path d="M386.667 453.667C379.293 453.667 373.334 459.641 373.334 467V680.333C373.334 687.692 379.293 693.666 386.667 693.666C394.04 693.666 400 687.692 400 680.333V467C400 459.641 394.04 453.667 386.667 453.667Z" fill="white"/>
<path d="M573.333 53.6672H600C635.094 53.6672 677.733 89.6938 680.04 121.361L693.373 294.694C693.906 301.68 699.747 307 706.653 307C706.986 307 707.347 306.987 707.694 306.959C715.026 306.4 720.52 299.986 719.961 292.639L706.628 119.359C703.067 70.4937 644.04 27 600 27H573.333C524.8 27 471 73.4797 466.706 119.306L453.373 292.639C452.814 299.986 458.306 306.398 465.64 306.959C473.12 307.439 479.4 302.027 479.961 294.692L493.281 121.572C496.253 89.8406 538.894 53.6672 573.333 53.6672Z" fill="white"/>
<path d="M307.533 293.841C300.933 293.734 294.947 297.973 293.613 304.455L240 561.694L186.386 304.453C185.039 297.973 178.853 293.853 172.439 293.839C102.398 293.839 48.8125 308.839 21.4922 336.092C7.24062 350.333 0 367.467 0 387V653.667C0 661.027 5.95938 667 13.3328 667C20.7062 667 26.6656 661.027 26.6656 653.667V387C26.6656 374.627 31.1453 364.147 40.3328 354.959C61.1062 334.227 105.292 321.892 162.506 320.612L226.92 629.533C226.92 629.559 226.934 629.586 226.934 629.613L226.947 629.719C227.041 630.133 227.32 630.452 227.441 630.852C227.827 632.105 228.241 633.345 228.973 634.425C229.4 635.078 230.041 635.531 230.573 636.092C231.241 636.759 231.8 637.519 232.588 638.052C233.467 638.638 234.494 638.919 235.494 639.278C236.108 639.505 236.614 639.919 237.28 640.052H237.373C238.214 640.225 239.133 640.066 240.014 640.066C240.894 640.066 241.814 640.225 242.667 640.052H242.72C243.161 639.958 243.494 639.678 243.906 639.545C245.147 639.159 246.386 638.745 247.453 638.025C248.12 637.572 248.586 636.919 249.159 636.358C249.8 635.731 250.533 635.184 251.039 634.425C251.759 633.372 252.145 632.145 252.533 630.919C252.666 630.505 252.959 630.159 253.053 629.719L253.066 629.613C253.066 629.586 253.08 629.559 253.08 629.533L317.494 320.612C374.72 321.892 418.894 334.239 439.667 354.959C448.855 364.145 453.334 374.627 453.334 387V653.667C453.334 661.027 459.294 667 466.667 667C474.041 667 480 661.027 480 653.667V387C480 367.467 472.759 350.333 458.506 336.094C431.186 308.827 377.6 293.841 307.533 293.841Z" fill="white"/>
</svg>
