<svg width="2388" height="690" viewBox="0 0 2388 690" fill="none" xmlns="http://www.w3.org/2000/svg">
<g clip-path="url(#clip0_350_9855)">
<g clip-path="url(#clip1_350_9855)">
<path d="M323.187 457.848C318.075 457.848 313.93 453.851 313.93 448.922C313.93 439.079 305.624 431.07 295.414 431.07C285.205 431.07 276.898 439.079 276.898 448.922C276.898 453.851 272.753 457.848 267.641 457.848H165.805C160.692 457.848 156.547 453.851 156.547 448.922C156.547 439.079 148.241 431.07 138.031 431.07C127.822 431.07 119.516 439.079 119.516 448.922C119.516 453.851 115.371 457.848 110.258 457.848C105.145 457.848 101 453.851 101 448.922V310.572C101 249.051 152.913 199 216.723 199C280.532 199 332.445 249.051 332.445 310.572V448.922C332.445 453.851 328.3 457.848 323.187 457.848ZM173.89 439.996H259.554C263.675 424.614 278.19 413.219 295.413 413.219C302.153 413.219 308.479 414.964 313.929 418.01V310.572C313.929 258.895 270.322 216.852 216.722 216.852C163.122 216.852 119.515 258.895 119.515 310.572V418.01C124.965 414.964 131.291 413.219 138.03 413.219C155.254 413.219 169.77 424.614 173.89 439.996Z" fill="black"/>
<path d="M295.414 529.254C274.995 529.254 258.383 513.237 258.383 493.551V448.922C258.383 429.235 274.995 413.219 295.414 413.219C315.833 413.219 332.445 429.235 332.445 448.922V493.551C332.445 513.237 315.833 529.254 295.414 529.254ZM295.414 431.07C285.205 431.07 276.898 439.079 276.898 448.922V493.551C276.898 503.394 285.205 511.402 295.414 511.402C305.624 511.402 313.93 503.394 313.93 493.551V448.922C313.93 439.079 305.624 431.07 295.414 431.07Z" fill="black"/>
<path d="M138.031 529.254C117.612 529.254 101 513.237 101 493.551V448.922C101 429.235 117.612 413.219 138.031 413.219C158.45 413.219 175.062 429.235 175.062 448.922V493.551C175.062 513.237 158.45 529.254 138.031 529.254ZM138.031 431.07C127.822 431.07 119.516 439.079 119.516 448.922V493.551C119.516 503.394 127.822 511.402 138.031 511.402C148.241 511.402 156.547 503.394 156.547 493.551V448.922C156.547 439.079 148.241 431.07 138.031 431.07Z" fill="black"/>
<path d="M216.723 379.45C183.542 379.45 156.547 353.424 156.547 321.433C156.547 289.442 183.542 263.415 216.723 263.415C249.904 263.415 276.898 289.442 276.898 321.433C276.898 353.424 249.904 379.45 216.723 379.45ZM216.723 281.267C193.751 281.267 175.062 299.285 175.062 321.433C175.062 343.58 193.751 361.599 216.723 361.599C239.694 361.599 258.383 343.58 258.383 321.433C258.383 299.285 239.694 281.267 216.723 281.267Z" fill="black"/>
<path d="M216.723 343.747C203.961 343.747 193.578 333.737 193.578 321.433C193.578 309.129 203.961 299.118 216.723 299.118C229.485 299.118 239.867 309.129 239.867 321.433C239.867 333.737 229.485 343.747 216.723 343.747ZM216.723 316.97C214.17 316.97 212.094 318.972 212.094 321.433C212.094 323.894 214.17 325.896 216.723 325.896C219.275 325.896 221.352 323.894 221.352 321.433C221.352 318.972 219.275 316.97 216.723 316.97Z" fill="black"/>
<path d="M218.432 148.97L309 130.316V209.737C257.247 162.112 176.697 162.027 125 209.695V130.323L215.198 148.969L216.815 149.303L218.432 148.97Z" stroke="black" stroke-width="16"/>
<path d="M373.585 116.744C381.546 122.693 383.248 133.923 377.378 141.777C371.509 149.632 360.257 151.182 352.296 145.233C344.335 139.284 342.633 128.054 348.502 120.199C354.372 112.345 365.624 110.795 373.585 116.744ZM359.392 135.736C362.046 137.72 365.796 137.203 367.753 134.585C369.709 131.967 369.142 128.223 366.488 126.24C363.835 124.257 360.084 124.774 358.128 127.392C356.171 130.01 356.738 133.753 359.392 135.736Z" fill="black"/>
<path d="M366.303 79.5936C367.766 80.6873 368.721 82.4226 368.737 84.3729L368.982 114.155C369.009 117.444 366.354 120.099 363.052 120.083C359.75 120.068 357.052 117.388 357.024 114.098L356.779 84.3164C356.753 81.0272 359.408 78.3725 362.709 78.3883C364.054 78.3948 365.298 78.8431 366.303 79.5936Z" fill="black"/>
<path d="M552.711 574.749H110.289C103.502 574.749 98 570.999 98 566.374C98 561.75 103.502 558 110.289 558H552.711C559.497 558 565 561.75 565 566.374C565 570.999 559.497 574.749 552.711 574.749Z" fill="black"/>
<path d="M89.9222 64.8196L214.238 41.7421C216.399 41.3409 218.616 41.3389 220.777 41.7362L346.353 64.8143C365.762 68.3811 366.115 96.0716 346.804 100.133L221.231 126.54C218.776 127.057 216.241 127.054 213.787 126.533L89.4673 100.124C70.2024 96.0321 70.5583 68.4142 89.9222 64.8196Z" stroke="black" stroke-width="16"/>
<path d="M527.633 276.375C523.565 276.375 520.267 279.673 520.267 283.742V498.312C520.267 504.94 514.894 510.312 508.267 510.312H387.467C380.987 510.312 375.733 510.954 375.733 500.625C375.733 490.296 380.987 481.938 387.467 481.938H480.533C494.893 481.938 506.533 470.297 506.533 455.938V264C506.533 250.193 495.34 239 481.533 239H379.467C366.507 239 356 255.735 356 276.375V500.625C356 521.265 366.507 529 379.467 529H457.233H510C523.807 529 535 517.807 535 504V283.742C535 279.673 531.702 276.375 527.633 276.375V276.375ZM376.467 313.75V295.062V269.688C376.467 263.06 381.839 257.688 388.467 257.688H473.974C480.533 257.688 485.877 262.954 485.973 269.512L488.622 451.075C488.72 457.77 483.32 463.25 476.624 463.25H388.467C381.839 463.25 376.467 457.877 376.467 451.25V313.75ZM462.333 285.719C462.333 290.879 458.15 295.062 452.99 295.062H401.277C396.117 295.062 391.933 290.879 391.933 285.719V285.719C391.933 280.558 396.117 276.375 401.277 276.375H452.99C458.15 276.375 462.333 280.558 462.333 285.719V285.719ZM438.867 323.094C438.867 328.254 434.683 332.438 429.523 332.438H401.277C396.117 332.438 391.933 328.254 391.933 323.094V323.094C391.933 317.933 396.117 313.75 401.277 313.75H429.523C434.683 313.75 438.867 317.933 438.867 323.094V323.094ZM415.4 360.469C415.4 365.629 411.217 369.812 406.056 369.812H401.277C396.117 369.812 391.933 365.629 391.933 360.469V360.469C391.933 355.308 396.117 351.125 401.277 351.125H406.056C411.217 351.125 415.4 355.308 415.4 360.469V360.469Z" fill="black"/>
</g>
<path d="M830.006 529H825.206C820.94 529 817.206 526.6 814.006 521.8L681.206 271.4V517.8C681.206 520.467 680.14 523.133 678.006 525.8C676.406 527.933 673.74 529 670.006 529H664.406C656.94 529 653.206 525.267 653.206 517.8V217.8C653.206 209.8 656.94 205.8 664.406 205.8H670.006C675.34 205.8 678.006 207.4 678.006 210.6L814.006 461.8V217.8C814.006 215.133 814.54 212.467 815.606 209.8C817.206 207.133 819.873 205.8 823.606 205.8H830.006C833.74 205.8 836.406 207.133 838.006 209.8C839.606 212.467 840.406 215.133 840.406 217.8V517.8C840.406 520.467 839.606 523.133 838.006 525.8C836.406 527.933 833.74 529 830.006 529ZM994.925 529H961.325C943.192 529 929.058 523.133 918.925 511.4C908.792 499.667 903.725 483.667 903.725 463.4V359.4C903.725 339.133 908.792 323.133 918.925 311.4C929.058 299.667 943.192 293.8 961.325 293.8H994.925C1012.53 293.8 1026.66 299.667 1037.33 311.4C1047.99 323.133 1053.33 339.133 1053.33 359.4V463.4C1053.33 483.667 1047.99 499.667 1037.33 511.4C1026.66 523.133 1012.53 529 994.925 529ZM1030.13 359.4C1030.13 332.2 1018.39 318.6 994.925 318.6H961.325C937.858 318.6 926.125 332.2 926.125 359.4V462.6C926.125 490.333 937.858 504.2 961.325 504.2H994.925C1018.39 504.2 1030.13 490.333 1030.13 462.6V359.4ZM1192.39 521C1190.26 526.333 1187.33 529 1183.59 529H1173.99C1171.33 529 1169.19 528.2 1167.59 526.6C1166.53 524.467 1165.73 522.867 1165.19 521.8L1102.79 306.6C1101.19 298.067 1103.86 293.8 1110.79 293.8H1117.19C1119.86 293.8 1121.73 294.6 1122.79 296.2C1124.39 297.8 1125.46 299.133 1125.99 300.2L1178.79 489.8C1185.73 463.133 1192.13 439.4 1197.99 418.6C1204.39 397.8 1209.99 378.867 1214.79 361.8L1233.19 300.2C1233.19 299.667 1233.73 298.6 1234.79 297C1235.86 294.867 1237.73 293.8 1240.39 293.8H1246.79C1253.73 293.8 1256.39 298.067 1254.79 306.6L1192.39 521ZM1439.76 529H1434.96C1431.23 529 1427.76 525.533 1424.56 518.6C1410.16 525.533 1398.16 529 1388.56 529H1359.76C1341.63 529 1327.5 523.133 1317.36 511.4C1307.23 499.667 1302.16 483.667 1302.16 463.4V359.4C1302.16 339.133 1307.23 323.133 1317.36 311.4C1327.5 299.667 1341.63 293.8 1359.76 293.8H1439.76C1446.16 293.8 1449.36 297 1449.36 303.4V518.6C1449.36 525.533 1446.16 529 1439.76 529ZM1427.76 341.8C1427.76 339.667 1427.23 336.467 1426.16 332.2C1425.1 328.467 1423.23 325.533 1420.56 323.4C1417.9 321.267 1413.63 319.667 1407.76 318.6H1359.76C1336.3 318.6 1324.56 332.2 1324.56 359.4V462.6C1324.56 490.333 1336.3 504.2 1359.76 504.2H1387.76C1413.9 504.2 1426.96 491.133 1426.96 465C1426.96 428.733 1426.96 402.333 1426.96 385.8C1427.5 369.267 1427.76 358.067 1427.76 352.2V341.8ZM1626.87 529H1574.87C1554.07 529 1538.07 522.867 1526.87 510.6C1515.67 497.8 1510.07 479.4 1510.07 455.4V437C1510.07 428.467 1513.27 424.2 1519.67 424.2H1526.87C1533.8 424.2 1537.27 428.467 1537.27 437V454.6C1537.27 485 1549.8 500.2 1574.87 500.2H1626.87C1652.47 500.2 1665.27 485 1665.27 454.6V432.2C1665.27 420.467 1660.74 410.6 1651.67 402.6C1642.6 394.6 1630.6 388.733 1615.67 385C1603.94 382.333 1592.2 379.667 1580.47 377C1568.74 373.8 1557.54 369.267 1546.87 363.4C1536.2 357.533 1527.4 350.333 1520.47 341.8C1513.54 332.733 1510.07 321.267 1510.07 307.4V279.4C1510.07 257 1515.67 239.133 1526.87 225.8C1538.6 212.467 1554.6 205.8 1574.87 205.8H1626.87C1647.14 205.8 1662.87 212.467 1674.07 225.8C1685.8 239.133 1691.67 257 1691.67 279.4V292.2C1691.67 301.267 1688.2 305.8 1681.27 305.8H1675.67C1668.74 305.8 1665.27 301.267 1665.27 292.2V279.4C1665.27 249.533 1652.47 234.6 1626.87 234.6H1574.87C1549.8 234.6 1537.27 249.533 1537.27 279.4V306.6C1537.27 315.667 1540.74 323.933 1547.67 331.4C1554.6 338.333 1567.14 343.933 1585.27 348.2C1597.54 350.867 1609.27 353.8 1620.47 357C1632.2 359.667 1643.67 364.2 1654.87 370.6C1665.54 376.467 1674.34 384.2 1681.27 393.8C1688.2 402.867 1691.67 415.133 1691.67 430.6V455.4C1691.67 479.4 1686.07 497.8 1674.87 510.6C1663.67 522.867 1647.67 529 1626.87 529ZM1882.66 529H1876.26C1870.39 529 1866.39 526.867 1864.26 522.6L1797.06 412.2C1793.86 407.933 1793.86 403.4 1797.06 398.6L1857.06 296.2C1858.12 294.067 1859.99 292.467 1862.66 291.4C1865.86 290.333 1867.99 289.8 1869.06 289.8H1873.86C1877.59 289.8 1879.99 291.4 1881.06 294.6C1882.12 297.8 1881.86 300.733 1880.26 303.4L1821.06 405.8L1889.06 515.4C1891.72 519.133 1892.26 522.333 1890.66 525C1889.59 527.667 1886.92 529 1882.66 529ZM1766.66 529H1761.06C1758.39 529 1756.26 527.933 1754.66 525.8C1753.59 523.667 1753.06 521.267 1753.06 518.6V215.4C1753.06 208.467 1755.72 205 1761.06 205H1766.66C1772.52 205 1775.46 208.467 1775.46 215.4V518.6C1775.46 525.533 1772.52 529 1766.66 529ZM2023.83 529H1990.23C1972.1 529 1957.96 523.133 1947.83 511.4C1937.7 499.667 1932.63 483.667 1932.63 463.4V359.4C1932.63 339.133 1937.7 323.133 1947.83 311.4C1957.96 299.667 1972.1 293.8 1990.23 293.8H2023.83C2041.43 293.8 2055.56 299.667 2066.23 311.4C2076.9 323.133 2082.23 339.133 2082.23 359.4V463.4C2082.23 483.667 2076.9 499.667 2066.23 511.4C2055.56 523.133 2041.43 529 2023.83 529ZM2059.03 359.4C2059.03 332.2 2047.3 318.6 2023.83 318.6H1990.23C1966.76 318.6 1955.03 332.2 1955.03 359.4V462.6C1955.03 490.333 1966.76 504.2 1990.23 504.2H2023.83C2047.3 504.2 2059.03 490.333 2059.03 462.6V359.4ZM2229.3 529H2195.7C2177.57 529 2163.43 523.133 2153.3 511.4C2143.17 499.667 2138.1 483.667 2138.1 463.4V359.4C2138.1 339.133 2143.17 323.133 2153.3 311.4C2163.43 299.667 2177.57 293.8 2195.7 293.8H2229.3C2246.9 293.8 2261.03 299.667 2271.7 311.4C2282.37 323.133 2287.7 339.133 2287.7 359.4V463.4C2287.7 483.667 2282.37 499.667 2271.7 511.4C2261.03 523.133 2246.9 529 2229.3 529ZM2264.5 359.4C2264.5 332.2 2252.77 318.6 2229.3 318.6H2195.7C2172.23 318.6 2160.5 332.2 2160.5 359.4V462.6C2160.5 490.333 2172.23 504.2 2195.7 504.2H2229.3C2252.77 504.2 2264.5 490.333 2264.5 462.6V359.4ZM2361.97 529H2356.37C2353.7 529 2351.57 527.933 2349.97 525.8C2348.9 523.667 2348.37 521.267 2348.37 518.6V215.4C2348.37 208.467 2351.04 205 2356.37 205H2361.97C2368.37 205 2371.57 208.467 2371.57 215.4V518.6C2371.57 525.533 2368.37 529 2361.97 529Z" fill="black"/>
</g>
<defs>
<clipPath id="clip0_350_9855">
<rect width="2388" height="690" fill="white"/>
</clipPath>
<clipPath id="clip1_350_9855">
<rect width="627" height="613" fill="white"/>
</clipPath>
</defs>
</svg>
